<svg width="110.000000" height="86.775513" viewBox="0 0 110 86.7755" fill="none" xmlns="http://www.w3.org/2000/svg" xmlns:xlink="http://www.w3.org/1999/xlink">
	<desc>
			Created with Pixso.
	</desc>
	<defs/>
	<path d="M105.5 36.72C104.96 35.09 104.45 33.72 104.06 32.29C103.8 31.39 103.3 31.14 102.42 31.17C99.66 31.28 96.86 31.14 94.13 31.48C91.39 31.81 89.53 31 88.29 28.56C87.92 27.83 87.3 27.19 86.77 26.54C86.03 25.68 85.89 24.81 86.32 23.71C87.53 20.63 88.57 17.49 89.79 14.38C90.18 13.37 89.98 12.75 89.08 12.16C87.42 11.04 85.86 9.84 84.26 8.72C82 7.18 82.62 7.06 80.36 8.75C77.88 10.6 75.4 12.42 72.95 14.32C72.16 14.94 71.4 15.02 70.47 14.69C68.97 14.13 67.48 13.57 65.92 13.23C64.6 12.92 63.98 12.16 63.64 10.93C62.74 7.79 61.72 4.68 60.82 1.54C60.57 0.64 60.11 0.2 59.18 0.17C56.87 0.14 54.59 0.14 52.3 0.03C51.03 -0.03 50.33 0.42 49.96 1.68C49.11 4.74 48.1 7.74 47.22 10.79C46.89 12 46.32 12.7 45.02 12.98C43.39 13.34 41.75 13.85 40.2 14.46C39.13 14.88 38.34 14.69 37.49 14.04C34.73 11.94 31.94 9.89 29.2 7.76C28.47 7.2 27.9 7.2 27.2 7.74C25.23 9.17 23.22 10.57 21.22 11.91C20.37 12.47 20.35 13.06 20.68 13.93C21.93 17.15 23.11 20.41 24.21 23.66C24.41 24.25 24.21 25.14 23.87 25.68C22.86 27.24 21.62 28.67 20.57 30.22C19.95 31.11 19.22 31.48 18.12 31.42C14.65 31.28 11.18 31.2 7.68 31.17C7.2 31.17 6.44 31.39 6.3 31.73C5.65 33.3 5.17 34.93 4.55 36.72C5.31 36.72 5.82 36.72 6.36 36.72C11.52 36.72 16.71 36.61 21.87 36.78C23.9 36.83 25.25 36.44 25.93 34.42C26.16 33.78 26.66 33.22 27.03 32.65C35.55 19.59 53.01 14.32 67.42 20.38C74.89 23.52 80.51 28.62 84.37 35.71C84.6 36.16 85.22 36.69 85.64 36.69C92.15 36.75 98.7 36.72 105.5 36.72Z" fill="#FFFFFF" fill-opacity="1.000000" fill-rule="nonzero"/>
	<path d="M105.5 36.72C98.67 36.72 92.15 36.75 85.61 36.66C85.19 36.66 84.57 36.13 84.34 35.68C80.48 28.59 74.87 23.49 67.39 20.35C53.01 14.32 35.55 19.59 26.97 32.63C26.58 33.22 26.07 33.75 25.87 34.39C25.2 36.41 23.84 36.83 21.81 36.75C16.65 36.58 11.49 36.69 6.3 36.69C5.79 36.69 5.28 36.69 4.5 36.69C5.09 34.93 5.57 33.27 6.24 31.7C6.38 31.37 7.15 31.14 7.63 31.14C11.09 31.17 14.59 31.25 18.06 31.39C19.19 31.45 19.89 31.09 20.52 30.19C21.59 28.65 22.8 27.22 23.82 25.65C24.15 25.11 24.35 24.22 24.15 23.63C23.05 20.35 21.84 17.13 20.63 13.9C20.29 13.03 20.35 12.45 21.16 11.88C23.19 10.54 25.17 9.11 27.14 7.71C27.85 7.2 28.41 7.18 29.15 7.74C31.88 9.87 34.7 11.91 37.44 14.01C38.28 14.66 39.07 14.88 40.15 14.44C41.7 13.82 43.33 13.31 44.97 12.95C46.27 12.67 46.83 11.97 47.17 10.76C48.01 7.71 49.03 4.71 49.9 1.65C50.27 0.39 50.98 -0.06 52.25 0C54.53 0.11 56.84 0.11 59.13 0.14C60.09 0.14 60.51 0.59 60.76 1.51C61.67 4.65 62.68 7.76 63.58 10.9C63.92 12.14 64.54 12.89 65.87 13.2C67.42 13.57 68.91 14.1 70.41 14.66C71.34 15.02 72.1 14.91 72.89 14.3C75.34 12.42 77.83 10.57 80.31 8.72C82.56 7.04 81.97 7.15 84.2 8.69C85.81 9.81 87.39 11.02 89.02 12.08C89.93 12.67 90.12 13.29 89.73 14.3C88.54 17.38 87.47 20.52 86.26 23.63C85.84 24.72 85.98 25.59 86.71 26.46C87.25 27.1 87.84 27.75 88.23 28.48C89.47 30.92 91.34 31.73 94.07 31.39C96.81 31.06 99.6 31.2 102.36 31.09C103.24 31.06 103.75 31.34 104 32.21C104.48 33.72 104.99 35.09 105.5 36.72Z" fill="#FF3811" fill-opacity="1.000000" fill-rule="nonzero"/>
	<path d="M76.84 46.19C73.51 42.91 70.15 39.61 66.8 36.27C66.21 35.68 65.84 36.07 65.42 36.49C63.84 38.09 62.26 39.69 60.65 41.23C59.63 42.21 58.53 43.17 57.46 44.12C57.55 44.26 57.63 44.37 57.72 44.51C60.85 43.89 63.58 44.54 65.84 46.75C68.07 48.97 68.66 51.74 68.1 54.74C71.03 51.88 73.88 49.08 76.84 46.19Z" fill="#FFFFFF" fill-opacity="1.000000" fill-rule="nonzero"/>
	<path d="M52.53 44.34C52.1 43.87 51.91 43.56 51.65 43.31C49.4 41.06 47.08 38.88 44.88 36.58C44.09 35.77 43.61 35.79 42.85 36.58C39.92 39.55 36.99 42.47 33.97 45.35C33.21 46.08 33.38 46.53 34.03 47.17C36.39 49.5 38.74 51.86 41.1 54.18C41.3 54.38 41.58 54.49 41.92 54.71C40.94 47.99 45.67 43.36 52.53 44.34Z" fill="#FFFFFF" fill-opacity="1.000000" fill-rule="nonzero"/>
	<path d="M41.56 33.36C37.97 36.97 34.5 40.5 31.06 43.98C31.32 44.32 31.66 44.79 31.97 45.18C35.6 41.57 39.1 38.12 42.82 34.45C42.43 34.11 41.98 33.72 41.56 33.36Z" fill="#FFFFFF" fill-opacity="1.000000" fill-rule="nonzero"/>
	<path d="M81.58 41.57C81.49 41.43 81.44 41.26 81.32 41.12C78.14 37.95 74.98 34.81 71.79 31.65C71.25 31.11 70.86 31.09 70.27 31.65C69.65 32.26 69.76 32.68 70.32 33.24C73.17 36.02 75.97 38.82 78.79 41.62C79.24 42.07 79.72 42.49 80.36 43.11C80.79 42.58 81.13 42.16 81.58 41.57Z" fill="#FFFFFF" fill-opacity="1.000000" fill-rule="nonzero"/>
	<path d="M79.32 43.81C76.05 40.56 72.83 37.39 69.62 34.17C69.08 33.64 68.63 33.22 67.9 34C67.19 34.76 67.59 35.21 68.15 35.74C71.03 38.57 73.88 41.4 76.73 44.23C78 45.52 78.02 45.52 79.32 43.81Z" fill="#FFFFFF" fill-opacity="1.000000" fill-rule="nonzero"/>
	<path d="M40.37 32.32C39.1 30.78 39.13 30.78 37.78 32.09C35.01 34.84 32.25 37.56 29.51 40.31C28.19 41.62 28.21 41.79 29.79 42.69C33.32 39.24 36.82 35.79 40.37 32.32Z" fill="#FFFFFF" fill-opacity="1.000000" fill-rule="nonzero"/>
	<path d="M76.84 46.19C73.88 49.11 71.03 51.88 68.1 54.77C68.66 51.77 68.07 49.02 65.84 46.78C63.58 44.54 60.82 43.92 57.72 44.54C57.63 44.4 57.55 44.29 57.46 44.15C58.53 43.19 59.61 42.27 60.65 41.26C62.26 39.69 63.84 38.12 65.42 36.52C65.84 36.1 66.21 35.71 66.8 36.3C70.15 39.58 73.51 42.89 76.84 46.19ZM69.14 41.65C68.55 42.44 67.84 42.97 67.9 43.36C67.98 43.84 68.72 44.23 69.17 44.65C69.56 44.23 70.24 43.81 70.27 43.36C70.32 42.91 69.7 42.41 69.14 41.65Z" fill="#444444" fill-opacity="1.000000" fill-rule="nonzero"/>
	<path d="M52.53 44.34C45.65 43.36 40.94 47.99 41.92 54.74C41.58 54.52 41.3 54.41 41.1 54.21C38.74 51.88 36.39 49.53 34.03 47.2C33.38 46.56 33.21 46.11 33.97 45.38C36.96 42.49 39.92 39.55 42.85 36.61C43.61 35.82 44.09 35.79 44.88 36.61C47.08 38.91 49.4 41.09 51.65 43.33C51.91 43.56 52.13 43.87 52.53 44.34ZM42.68 43.45C41.89 42.8 41.39 42.1 41.02 42.16C40.51 42.24 40.09 42.94 39.64 43.36C40.06 43.78 40.43 44.46 40.91 44.54C41.3 44.6 41.84 43.98 42.68 43.45Z" fill="#444444" fill-opacity="1.000000" fill-rule="nonzero"/>
	<path d="M41.56 33.36C41.98 33.72 42.43 34.08 42.82 34.45C39.13 38.12 35.63 41.57 31.97 45.18C31.66 44.76 31.29 44.29 31.06 43.98C34.5 40.5 38 36.97 41.56 33.36Z" fill="#444444" fill-opacity="1.000000" fill-rule="nonzero"/>
	<path d="M81.58 41.57C81.13 42.16 80.79 42.58 80.36 43.14C79.72 42.52 79.24 42.1 78.79 41.65C75.97 38.85 73.17 36.05 70.32 33.27C69.73 32.71 69.62 32.29 70.27 31.67C70.83 31.11 71.25 31.14 71.79 31.67C74.95 34.84 78.14 37.98 81.32 41.15C81.44 41.23 81.49 41.43 81.58 41.57Z" fill="#444444" fill-opacity="1.000000" fill-rule="nonzero"/>
	<path d="M79.32 43.81C78.05 45.52 78.02 45.52 76.73 44.23C73.88 41.4 71.03 38.54 68.15 35.74C67.59 35.21 67.19 34.76 67.9 34C68.63 33.22 69.08 33.64 69.62 34.17C72.83 37.39 76.05 40.56 79.32 43.81Z" fill="#444444" fill-opacity="1.000000" fill-rule="nonzero"/>
	<path d="M40.37 32.32C36.82 35.82 33.32 39.24 29.79 42.72C28.21 41.82 28.19 41.65 29.51 40.34C32.28 37.59 35.04 34.87 37.78 32.12C39.13 30.78 39.13 30.78 40.37 32.32Z" fill="#444444" fill-opacity="1.000000" fill-rule="nonzero"/>
	<path d="M69.14 41.65C69.68 42.44 70.3 42.91 70.27 43.36C70.24 43.81 69.56 44.23 69.17 44.65C68.72 44.23 67.98 43.87 67.9 43.36C67.84 42.97 68.55 42.44 69.14 41.65Z" fill="#FFFFFF" fill-opacity="1.000000" fill-rule="nonzero"/>
	<path d="M42.68 43.45C41.84 43.98 41.33 44.6 40.88 44.51C40.4 44.46 40.03 43.75 39.61 43.33C40.06 42.91 40.48 42.21 40.99 42.13C41.39 42.1 41.89 42.83 42.68 43.45Z" fill="#FFFFFF" fill-opacity="1.000000" fill-rule="nonzero"/>
	<path d="M15.39 65.86Q14.92 65.58 14.29 65.58Q13.61 65.58 13.14 65.88Q13.08 65.92 13.03 65.96Q12.67 66.29 12.67 67.03Q12.67 67.76 13.03 68.09Q13.08 68.14 13.14 68.18Q13.16 68.19 13.18 68.2Q13.64 68.5 14.29 68.5Q14.89 68.5 15.34 68.23Q15.39 68.21 15.43 68.18Q15.49 68.14 15.55 68.08Q15.91 67.75 15.91 67.03Q15.91 66.3 15.54 65.97Q15.49 65.92 15.43 65.88Q15.41 65.87 15.39 65.86ZM50.21 68.67L50.21 65.58L47.24 65.58L47.24 80.77L50.21 80.77L50.21 75.63Q50.21 74.47 50.43 73.67Q50.64 72.86 51.16 72.45Q51.68 72.03 52.58 72.03Q53.24 72.03 53.64 72.35Q53.79 72.47 53.91 72.63Q54.34 73.22 54.34 74.39L54.34 80.77L57.31 80.77L57.31 73.65Q57.31 72.25 56.83 71.36Q56.53 70.83 56.1 70.47Q55.81 70.23 55.46 70.06Q54.58 69.65 53.4 69.65Q52.72 69.65 52.14 69.81Q51.76 69.92 51.42 70.11Q51.24 70.21 51.07 70.33Q50.59 70.68 50.23 71.25L50.08 71.25Q50.11 70.95 50.16 70.21Q50.21 69.48 50.21 68.67ZM82.15 69.14Q82.82 68.81 83.69 68.81Q84.47 68.81 85.28 69.09Q86.09 69.37 86.89 69.75L87.87 67.29Q87.81 67.26 87.74 67.23Q86.82 66.81 85.83 66.56Q84.76 66.29 83.69 66.29Q82.07 66.29 80.82 66.83Q79.93 67.21 79.24 67.82Q78.96 68.07 78.72 68.35Q77.87 69.33 77.43 70.68Q76.99 72.03 76.99 73.65Q76.99 75.85 77.68 77.49Q78.12 78.56 78.87 79.32Q79.28 79.73 79.78 80.05Q81.2 80.97 83.41 80.97Q84.55 80.97 85.47 80.79Q86.39 80.62 87.33 80.23L87.33 77.69Q86.31 78.06 85.43 78.25Q84.56 78.45 83.69 78.45Q82.44 78.45 81.65 77.88Q81.57 77.83 81.5 77.77Q80.82 77.22 80.48 76.25Q80.11 75.18 80.11 73.67Q80.11 72.55 80.34 71.65Q80.58 70.75 81.03 70.12Q81.34 69.69 81.75 69.39Q81.94 69.25 82.15 69.14ZM2.05 80.77L5.03 80.77L5.03 75.13L9.87 75.13L9.87 72.66L5.03 72.66L5.03 68.97L10.23 68.97L10.23 66.49L2.05 66.49L2.05 80.77ZM38.37 80.77L41.4 80.77L41.4 69.01L45.27 69.01L45.27 66.49L34.49 66.49L34.49 69.01L38.37 69.01L38.37 80.77ZM97.98 70.58Q96.81 69.63 94.61 69.63Q93.46 69.63 92.38 69.89Q91.3 70.16 90.43 70.61L91.42 72.63Q92.18 72.28 92.94 72.06Q93.36 71.94 93.78 71.88Q94.13 71.83 94.49 71.83Q95.29 71.83 95.73 72.23Q95.74 72.23 95.74 72.24Q95.76 72.25 95.78 72.27Q96.19 72.67 96.19 73.5L96.19 73.97L94.3 74.03Q91.86 74.12 90.63 74.95Q90.25 75.21 89.98 75.56Q89.41 76.32 89.41 77.51Q89.41 78.69 89.85 79.46Q90.12 79.92 90.51 80.24Q90.76 80.45 91.06 80.59Q91.83 80.97 92.79 80.97Q93.7 80.97 94.34 80.79Q94.96 80.62 95.44 80.26Q95.45 80.25 95.46 80.24Q95.95 79.87 96.42 79.29L96.49 79.29L97.07 80.77L99.15 80.77L99.15 73.5Q99.15 71.89 98.36 70.96Q98.19 70.75 97.98 70.58ZM67.49 70.23Q66.4 69.65 64.88 69.65Q63.34 69.65 62.18 70.29Q61.85 70.47 61.56 70.7Q60.83 71.29 60.37 72.2Q59.72 73.48 59.72 75.39Q59.72 77.27 60.43 78.51Q60.84 79.21 61.41 79.71Q61.86 80.1 62.42 80.36Q63.68 80.97 65.32 80.97Q66.58 80.97 67.47 80.78Q67.89 80.69 68.3 80.55Q68.74 80.4 69.16 80.19L69.16 77.89Q68.24 78.32 67.37 78.53Q66.5 78.75 65.46 78.75Q64.39 78.75 63.72 78.23Q63.6 78.14 63.49 78.03Q63.42 77.95 63.35 77.87Q62.78 77.18 62.73 76.05L69.78 76.05L69.78 74.61Q69.78 73.02 69.18 71.91Q68.86 71.32 68.4 70.88Q68 70.5 67.49 70.23ZM108.83 69.67Q108.54 69.65 108.31 69.65Q107.7 69.65 107.17 69.84Q107.07 69.88 106.97 69.93Q106.58 70.1 106.25 70.35Q106.05 70.49 105.86 70.67Q105.38 71.13 105.06 71.69L104.91 71.69L104.47 69.85L102.22 69.85L102.22 80.77L105.2 80.77L105.2 75.21Q105.2 74.44 105.44 73.91Q105.66 73.45 106.01 73.15Q106.06 73.1 106.12 73.05Q106.23 72.97 106.34 72.9Q106.68 72.69 107.1 72.58Q107.17 72.56 107.24 72.54Q107.71 72.43 108.21 72.43Q108.41 72.43 108.68 72.46Q108.95 72.48 109.09 72.53L109.32 69.74Q109.13 69.7 108.83 69.67ZM15.77 80.77L15.77 69.85L12.79 69.85L12.79 80.77L15.77 80.77ZM17.62 69.85L21.13 75.19L17.43 80.77L20.81 80.77L23.12 77.03L25.41 80.77L28.8 80.77L25.08 75.19L28.63 69.85L25.25 69.85L23.12 73.33L21 69.85L17.62 69.85ZM63.9 72Q64.34 71.77 64.9 71.77Q65.61 71.77 66.06 72.07Q66.23 72.19 66.37 72.33Q66.6 72.57 66.74 72.89Q66.97 73.41 66.98 74.07L62.8 74.07Q62.89 72.88 63.46 72.32Q63.66 72.13 63.9 72ZM95.04 75.75L96.19 75.71L96.19 76.61Q96.19 77.4 95.82 77.91Q95.69 78.08 95.53 78.22Q95.33 78.39 95.1 78.51Q94.58 78.79 93.92 78.79Q93.27 78.79 92.87 78.5Q92.81 78.46 92.76 78.41Q92.47 78.11 92.47 77.53Q92.47 77.07 92.66 76.72Q92.8 76.47 93.03 76.27Q93.59 75.79 95.04 75.75Z" fill="#444444" fill-opacity="1.000000" fill-rule="evenodd"/>
</svg>
